<svg viewBox="0 0 170 170" xmlns="http://www.w3.org/2000/svg"><g transform="translate(35 7)">
<path d="M74.9133 18.7884C75.2778 18.7735 75.6426 18.7622 76.0074 18.7546C84.788 18.5635 93.278 21.9041 99.5738 28.0276C105.91 34.1349 109.543 42.5205 109.666 51.3198C109.794 60.07 106.443 68.5133 100.35 74.7945C95.5023 79.7985 89.1975 83.1427 82.3359 84.3498C81.2763 84.5459 77.5603 85.2748 76.8628 84.5801C76.4271 83.327 76.5994 73.2081 76.6702 71.3623C78.0529 71.0602 79.5657 70.9735 81.0207 70.6202C85.5811 69.513 88.9191 67.3284 91.8534 63.7476C94.45 60.4847 95.906 56.1885 95.9677 52.0291C96.0295 46.8593 94.0355 41.8764 90.4241 38.1763C86.822 34.5242 81.9258 32.4385 76.7966 32.3714C68.2657 32.2428 60.6464 37.6874 58.0045 45.7999C57.6081 47.0339 57.2108 50.6578 56.6606 51.1956C55.2983 51.5337 45.195 51.2633 43.5201 51.0388C43.5144 50.9678 43.5096 50.8967 43.5055 50.8256C43.1079 43.9489 47.126 34.8587 51.7506 29.8425C58.1013 22.9544 65.6331 19.3216 74.9133 18.7884Z" fill="#3C579E" xmlns="http://www.w3.org/2000/svg" />
<path d="M43.9795 57.8324C45.6244 57.7522 55.8946 57.6347 56.9201 58.0523C57.3655 59.1044 57.1588 69.4867 57.1537 71.1515C59.0369 71.1577 69.2158 71.0052 70.3052 71.3706C70.7187 72.4942 70.5746 83.0213 70.4529 84.7318C68.8374 85.058 66.2503 84.9509 64.5053 84.9439L57.1445 84.934C57.1672 88.7043 57.2973 93.8765 57.0386 97.7385C57.0204 98.0104 56.8 98.0939 56.5999 98.1969C53.2531 98.3543 46.8629 98.3268 43.5225 98.1757C43.2522 94.5753 43.4236 88.6556 43.4198 84.9357L35.6007 84.9464C33.8796 84.9477 31.826 85.0156 30.1478 84.7706C29.931 83.285 29.7829 72.144 30.2719 71.3623C31.3412 71.0092 41.364 71.1467 43.3706 71.1354C43.6009 66.9455 43.259 62.5632 43.5243 58.3672C43.5448 58.0442 43.7416 57.972 43.9795 57.8324Z" fill="#3C579E" xmlns="http://www.w3.org/2000/svg" />
<path d="M75.5166 44.0632C79.9304 43.362 84.0712 46.3887 84.7425 50.8072C85.414 55.2256 82.3593 59.3458 77.9365 59.9874C73.5556 60.623 69.4829 57.6037 68.8179 53.2272C68.1527 48.8505 71.1446 44.7577 75.5166 44.0632Z" fill="#3C579E" xmlns="http://www.w3.org/2000/svg" />
</g></svg>
